<svg id="ps-illustration:error-general-fail" viewBox="0 0 600 600">
    <g fill="none" opacity="0.75" stroke-width="4" stroke-linejoin="round" stroke-miterlimit="10">
        <path
            d="M37.498 80.357c0-23.67 19.188-42.857 42.857-42.857h439.286c23.67 0 42.857 19.188 42.857 42.857v48.214h-525V80.357z">
        </path>
        <circle cx="88.391" cy="83.036" r="16.071"></circle>
        <circle cx="210.4" cy="83.036" r="16.071"></circle>
        <circle cx="149.395" cy="83.036" r="16.071"></circle>
        <path
            d="M519.64 562.5H80.356c-23.67 0-42.857-19.188-42.857-42.857V80.357c0-23.67 19.188-42.857 42.857-42.857h439.286c23.67 0 42.857 19.188 42.857 42.857v439.286c0 23.67-19.188 42.857-42.857 42.857z">
        </path>
    </g>
    <path d="M236.84 284.812H268.419V316.391H236.84z"></path>
    <path d="M331.577 284.812H363.156V316.391H331.577z"></path>
    <path d="M205.261 253.233H236.84V284.812H205.261z"></path>
    <path d="M173.682 221.654H205.261V253.233H173.682z"></path>
    <path d="M173.682 284.812H205.261V316.391H173.682z"></path>
    <path d="M236.84 221.654H268.419V253.233H236.84z"></path>
    <path d="M363.156 253.233H394.735V284.812H363.156z"></path>
    <path d="M331.577 221.654H363.156V253.233H331.577z"></path>
    <path d="M394.735 221.654H426.314V253.233H394.735z"></path>
    <path d="M394.735 284.812H426.314V316.391H394.735z"></path>
    <path
        d="M394.7347107 379.5490417L205.2610321 379.5490417 205.2610321 411.1279907 173.6820831 411.1279907 173.6820831 442.7069397 236.8399811 442.7069397 236.8399811 411.1279907 363.1557617 411.1279907 363.1557617 442.7069397 426.3136597 442.7069397 426.3136597 411.1279907 394.7347107 411.1279907z">
    </path>
</svg>